<?xml version="1.0" encoding="UTF-8" standalone="no"?>
<!DOCTYPE svg PUBLIC "-//W3C//DTD SVG 1.1//EN" "http://www.w3.org/Graphics/SVG/1.1/DTD/svg11.dtd">
<svg width="100%" height="100%" viewBox="0 0 1000 1000" version="1.1" xmlns="http://www.w3.org/2000/svg" xmlns:xlink="http://www.w3.org/1999/xlink" xml:space="preserve" xmlns:serif="http://www.serif.com/" style="fill-rule:evenodd;clip-rule:evenodd;stroke-linejoin:round;stroke-miterlimit:2;">
    <g>
        <g transform="matrix(-0.85,0,0,0.85,925,75)">
            <path d="M500,0C297.769,0 115.451,121.821 38.06,308.658L500,500L500,0Z" style="fill:rgb(116,255,63);"/>
        </g>
        <g transform="matrix(-0.85,0,0,0.85,925,75)">
            <path d="M38.06,308.658C12.933,369.321 0,434.339 0,500C0,632.608 52.678,759.785 146.447,853.553L500,500L38.06,308.658Z" style="fill:rgb(63,227,0);"/>
        </g>
        <g transform="matrix(-0.85,0,0,0.85,925,75)">
            <path d="M146.447,853.553C240.215,947.322 367.392,1000 500,1000C565.661,1000 630.679,987.067 691.342,961.94L500,500L146.447,853.553Z" style="fill:rgb(51,186,0);"/>
        </g>
        <g transform="matrix(-0.85,0,0,0.85,925,75)">
            <path d="M691.342,961.94C878.179,884.549 1000,702.231 1000,500L500,500L691.342,961.94Z" style="fill:rgb(37,134,0);"/>
        </g>
        <g transform="matrix(0.847689,0,0,0.85058,-348.844,74.7101)">
            <text x="500px" y="500px" style="font-family:'Arial-BoldMT', 'Arial', sans-serif;font-weight:700;font-size:698.023px;fill:rgb(26,93,0);">A</text>
        </g>
        <g transform="matrix(0.847111,0,-0.196238,0.85,192.675,92.1664)">
            <text x="500px" y="566px" style="font-family:'Dosis-Bold', 'Dosis';font-weight:700;font-size:392.557px;fill:rgb(22,80,0);">j<tspan x="590.288px " y="566px ">s</tspan></text>
        </g>
        <g transform="matrix(0.814349,0,0,0.814349,94.1279,94.1279)">
            <circle cx="498.401" cy="498.401" r="33.401" style="fill:rgb(22,80,0);"/>
        </g>
    </g>
</svg>
