<?xml version="1.0" encoding="UTF-8" standalone="no"?>
<!DOCTYPE svg PUBLIC "-//W3C//DTD SVG 1.1//EN" "http://www.w3.org/Graphics/SVG/1.1/DTD/svg11.dtd">
<svg width="100%" height="100%" viewBox="0 0 1080 1080" version="1.1" xmlns="http://www.w3.org/2000/svg" xmlns:xlink="http://www.w3.org/1999/xlink" xml:space="preserve" xmlns:serif="http://www.serif.com/" style="fill-rule:evenodd;clip-rule:evenodd;stroke-linejoin:round;stroke-miterlimit:2;">
    <g transform="matrix(1,0,0,1,-2070,0)">
        <rect id="Artboard2" x="2070" y="0" width="1080" height="1080" style="fill:none;"/>
        <g id="Artboard21" serif:id="Artboard2">
            <g transform="matrix(3.87116,0,0,3.89475,1673.19,-920.255)">
                <path d="M301.271,438.571C289.859,438.571 279.891,436.165 271.366,431.353C262.841,426.541 256.276,419.763 251.67,411.021C247.064,402.279 244.761,392.133 244.761,380.584C244.761,366.307 247.648,353.474 253.423,342.085C259.198,330.696 267.241,321.713 277.553,315.137C287.865,308.56 299.483,305.272 312.408,305.272C324.232,305.272 334.441,308.119 343.035,313.813C351.628,319.508 358.056,327.568 362.318,337.995L335.094,353.875C330.282,342.166 322.032,336.311 310.345,336.311C304.021,336.311 298.349,338.115 293.331,341.724C288.312,345.334 284.394,350.346 281.575,356.763C278.756,363.179 277.347,370.478 277.347,378.659C277.347,387.481 279.616,394.499 284.153,399.712C288.69,404.926 295.015,407.532 303.127,407.532C314.951,407.532 324.026,401.758 330.351,390.208L354.068,407.532C348.706,417.317 341.385,424.937 332.104,430.391C322.823,435.844 312.545,438.571 301.271,438.571Z" style="fill:rgb(254,255,254);fill-rule:nonzero;"/>
                <path d="M301.271,450.125C287.657,450.125 275.794,447.14 265.625,441.4C255.132,435.476 247.042,427.142 241.372,416.381C235.952,406.093 233.137,394.176 233.137,380.584C233.137,364.373 236.485,349.818 243.042,336.886C249.792,323.574 259.222,313.1 271.275,305.412C283.449,297.648 297.15,293.717 312.408,293.717C326.736,293.717 339.07,297.299 349.483,304.2C359.968,311.148 367.887,320.924 373.087,333.646L376.871,342.902L329.407,370.59L324.333,358.244C321.571,351.523 317.054,347.865 310.345,347.865C306.556,347.865 303.151,348.923 300.145,351.085C296.729,353.542 294.147,357.019 292.228,361.386C290.007,366.443 288.971,372.211 288.971,378.659C288.971,384.268 290.059,388.839 292.944,392.153C295.349,394.916 298.828,395.978 303.127,395.978C310.611,395.978 316.138,391.994 320.141,384.684L326.506,373.061L369.133,404.197L364.277,413.059C357.872,424.745 349.104,433.823 338.02,440.336C326.955,446.838 314.712,450.125 301.271,450.125ZM301.271,438.571C312.545,438.571 322.823,435.844 332.104,430.391C341.385,424.937 348.706,417.317 354.068,407.532L330.351,390.208C324.026,401.758 314.951,407.532 303.127,407.532C295.015,407.532 288.69,404.926 284.153,399.712C279.616,394.499 277.347,387.481 277.347,378.659C277.347,370.478 278.756,363.179 281.575,356.763C284.394,350.346 288.312,345.334 293.331,341.724C298.349,338.115 304.021,336.311 310.345,336.311C322.032,336.311 330.282,342.166 335.094,353.875L362.318,337.995C358.056,327.568 351.628,319.508 343.035,313.813C334.441,308.119 324.232,305.272 312.408,305.272C299.483,305.272 287.865,308.56 277.553,315.137C267.241,321.713 259.198,330.696 253.423,342.085C247.648,353.474 244.761,366.307 244.761,380.584C244.761,392.133 247.064,402.279 251.67,411.021C256.276,419.763 262.841,426.541 271.366,431.353C279.891,436.165 289.859,438.571 301.271,438.571Z"/>
            </g>
            <g transform="matrix(2.16979,0,0,2.18301,608.123,-637.961)">
                <path d="M969.325,632.919C935.376,555.323 849.23,564.909 810.084,564.909L724.341,564.909L724.341,499.646L805.273,499.646C862.564,499.646 983.388,493.374 1031.27,611.986L1102.82,587.813L1044.87,753.565L900.595,656.142L969.325,632.919Z" style="fill:rgb(253,39,58);"/>
                <path d="M969.325,632.919C935.376,555.323 849.23,564.909 810.084,564.909L724.341,564.909L724.341,499.646L805.273,499.646C862.564,499.646 983.388,493.374 1031.27,611.986L1102.82,587.813L1044.87,753.565L900.595,656.142L969.325,632.919ZM973.775,645.93L931.32,660.275L1037.73,732.128L1080.46,609.88L1023.32,629.188L1018.44,617.104C973.465,505.697 859.084,513.388 805.273,513.388C805.273,513.388 738.167,513.388 738.167,513.388L738.167,551.166L810.084,551.166C830.433,551.166 862.985,548.859 894.874,556.451C929.322,564.652 962.941,583.867 982.004,627.439L987.992,641.126L973.775,645.93Z" style="fill:rgb(254,255,254);"/>
            </g>
            <g transform="matrix(3.87116,0,0,3.89475,1168.68,-920.255)">
                <path d="M301.271,438.571C289.859,438.571 279.891,436.165 271.366,431.353C262.841,426.541 256.276,419.763 251.67,411.021C247.064,402.279 244.761,392.133 244.761,380.584C244.761,366.307 247.648,353.474 253.423,342.085C259.198,330.696 267.241,321.713 277.553,315.137C287.865,308.56 299.483,305.272 312.408,305.272C324.232,305.272 334.441,308.119 343.035,313.813C351.628,319.508 358.056,327.568 362.318,337.995L335.094,353.875C330.282,342.166 322.032,336.311 310.345,336.311C304.021,336.311 298.349,338.115 293.331,341.724C288.312,345.334 284.394,350.346 281.575,356.763C278.756,363.179 277.347,370.478 277.347,378.659C277.347,387.481 279.616,394.499 284.153,399.712C288.69,404.926 295.015,407.532 303.127,407.532C314.951,407.532 324.026,401.758 330.351,390.208L354.068,407.532C348.706,417.317 341.385,424.937 332.104,430.391C322.823,435.844 312.545,438.571 301.271,438.571Z" style="fill:rgb(254,255,254);fill-rule:nonzero;"/>
                <path d="M301.271,450.125C287.657,450.125 275.794,447.14 265.625,441.4C255.132,435.476 247.042,427.142 241.372,416.381C235.952,406.093 233.137,394.176 233.137,380.584C233.137,364.373 236.485,349.818 243.042,336.886C249.792,323.574 259.222,313.1 271.275,305.412C283.449,297.648 297.15,293.717 312.408,293.717C326.736,293.717 339.07,297.299 349.483,304.2C359.968,311.148 367.887,320.924 373.087,333.646L376.871,342.902L329.407,370.59L324.333,358.244C321.571,351.523 317.054,347.865 310.345,347.865C306.556,347.865 303.151,348.923 300.145,351.085C296.729,353.542 294.147,357.019 292.228,361.386C290.007,366.443 288.971,372.211 288.971,378.659C288.971,384.268 290.059,388.839 292.944,392.153C295.349,394.916 298.828,395.978 303.127,395.978C310.611,395.978 316.138,391.994 320.141,384.684L326.506,373.061L369.133,404.197L364.277,413.059C357.872,424.745 349.104,433.823 338.02,440.336C326.955,446.838 314.712,450.125 301.271,450.125ZM301.271,438.571C312.545,438.571 322.823,435.844 332.104,430.391C341.385,424.937 348.706,417.317 354.068,407.532L330.351,390.208C324.026,401.758 314.951,407.532 303.127,407.532C295.015,407.532 288.69,404.926 284.153,399.712C279.616,394.499 277.347,387.481 277.347,378.659C277.347,370.478 278.756,363.179 281.575,356.763C284.394,350.346 288.312,345.334 293.331,341.724C298.349,338.115 304.021,336.311 310.345,336.311C322.032,336.311 330.282,342.166 335.094,353.875L362.318,337.995C358.056,327.568 351.628,319.508 343.035,313.813C334.441,308.119 324.232,305.272 312.408,305.272C299.483,305.272 287.865,308.56 277.553,315.137C267.241,321.713 259.198,330.696 253.423,342.085C247.648,353.474 244.761,366.307 244.761,380.584C244.761,392.133 247.064,402.279 251.67,411.021C256.276,419.763 262.841,426.541 271.366,431.353C279.891,436.165 289.859,438.571 301.271,438.571Z"/>
            </g>
        </g>
    </g>
</svg>
